#N canvas 119 229 748 689 12;
#X obj 2290 1470 adc~ 1 2, f 11;
#X obj 2231 1774 dac~ 1 2, f 11;
#N canvas 190 68 817 834 xsynth 0;
#X msg 10 30 set \$1 4;
#X obj 10 56 block~;
#X obj 81 531 *~;
#X obj 38 531 *~;
#X obj 38 174 *~;
#X obj 38 200 rfft~;
#X obj 40 633 *~;
#X obj 129 240 *~;
#X obj 38 583 rifft~;
#X obj 40 669 outlet~;
#X obj 95 240 *~;
#X obj 95 263 +~;
#X obj 95 414 clip~;
#X obj 73 175 tabreceive~ \$0-hann;
#X obj 128 390 expr 0.01*$f1*$f1;
#X obj 95 288 +~ 1e-20;
#X obj 51 606 tabreceive~ \$0-hann;
#X text 169 236 squared magnitude;
#X text 163 288 protect against divide-by-zero;
#X text 93 199 outputs complex amplitudes;
#X text 135 414 limit the gain to squelch * squelch/100;
#X text 144 510 multiply gain by real and complex part of the amplitude, f 29;
#X obj 95 313 rsqrt~;
#X text 145 324 reciprocal square root;
#X obj 143 450 r window-size;
#X obj 95 478 *~ 0;
#X obj 128 344 r compL;
#X obj 10 4 r blocksize;
#X obj 128 367 * 10;
#X obj 485 246 *~;
#X obj 453 246 *~;
#X obj 453 272 +~;
#X obj 453 218 rfft~;
#X obj 453 189 *~;
#X obj 471 158 tabreceive~ \$0-hann;
#X text 515 216 Fourier transform;
#X obj 453 295 sqrt~;
#X text 520 273 modulus of control amplitude, f 10;
#X obj 95 452 *~;
#X obj 39 142 inlet~;
#X obj 454 124 inlet~;
#X text 91 142 control source;
#X text 502 126 filter input;
#X text 166 8 Adapted from the "Cort & Zack's secret" algoritm in I.06.timbre.stamp.pd;
#X obj 144 479 expr 2/($f1);
#X connect 0 0 1 0;
#X connect 2 0 8 1;
#X connect 3 0 8 0;
#X connect 4 0 5 0;
#X connect 5 0 10 0;
#X connect 5 0 10 1;
#X connect 5 0 3 0;
#X connect 5 1 7 0;
#X connect 5 1 7 1;
#X connect 5 1 2 0;
#X connect 6 0 9 0;
#X connect 7 0 11 1;
#X connect 8 0 6 0;
#X connect 10 0 11 0;
#X connect 11 0 15 0;
#X connect 12 0 38 0;
#X connect 13 0 4 1;
#X connect 14 0 12 2;
#X connect 15 0 22 0;
#X connect 16 0 6 1;
#X connect 22 0 12 0;
#X connect 24 0 44 0;
#X connect 25 0 2 1;
#X connect 25 0 3 1;
#X connect 26 0 28 0;
#X connect 27 0 0 0;
#X connect 28 0 14 0;
#X connect 29 0 31 1;
#X connect 30 0 31 0;
#X connect 31 0 36 0;
#X connect 32 0 30 0;
#X connect 32 0 30 1;
#X connect 32 1 29 0;
#X connect 32 1 29 1;
#X connect 33 0 32 0;
#X connect 34 0 33 1;
#X connect 36 0 38 1;
#X connect 38 0 25 0;
#X connect 39 0 4 0;
#X connect 40 0 33 0;
#X connect 44 0 25 1;
#X restore 2272 1553 pd xsynth;
#X f 13;
#X obj 2272 1515 *~;
#X obj 2364 1512 *~;
#X obj 2272 1438 r~ gainL;
#X obj 2382 1470 r~ gainR;
#X obj 2299 1584 r~ wetDry;
#X obj 1980 1887 s compL;
#X obj 1980 1835 r~ compL;
#X obj 1980 1861 unsig~;
#X obj 2062 1862 unsig~;
#X obj 2062 1836 r~ compR;
#X obj 2062 1888 s compR;
#X obj 1946 1404 initialise_digitals;
#N canvas 997 97 884 718 hardwareInterface 0;
#X obj 70 110 adc~ 3 4 5 6 7 8 9 10, f 91;
#X obj 61 281 dac~ 3 4 5 6 7 8 9 10, f 60;
#X obj 52 320 buttons, f 58;
#X text 233 65 Initialise LEDs \, buttons and trigger inputs;
#X text 474 335 Read from all buttons;
#X obj 52 462 loadbang;
#X obj 52 504 f;
#X obj 81 504 + 1;
#X text 144 490 Flash LEDs in sequence;
#X obj 52 483 metro 150;
#X obj 52 525 % 10;
#X obj 70 136 s~ gainL;
#X obj 144 136 s~ gainR;
#X obj 219 136 s~ compL;
#X obj 294 136 s~ compR;
#X obj 369 136 s~ lopL;
#X obj 444 136 s~ lopR;
#X obj 519 138 s~ gainOut;
#X obj 594 138 s~ wetDry;
#X obj 52 358 f;
#X obj 83 356 + 1;
#X obj 53 388 % 4;
#X obj 20 343 bng 19 250 50 0 empty empty empty 0 -10 0 12 #fcfcfc #000000 #000000;
#X obj 53 412 s blockButton;
#X connect 0 0 11 0;
#X connect 0 1 12 0;
#X connect 0 2 13 0;
#X connect 0 3 14 0;
#X connect 0 4 15 0;
#X connect 0 5 16 0;
#X connect 0 6 17 0;
#X connect 0 7 18 0;
#X connect 5 0 9 0;
#X connect 6 0 7 0;
#X connect 6 0 10 0;
#X connect 7 0 6 1;
#X connect 9 0 6 0;
#X connect 19 0 20 0;
#X connect 19 0 21 0;
#X connect 20 0 19 1;
#X connect 21 0 23 0;
#X connect 22 0 19 0;
#X restore 1946 1382 pd hardwareInterface;
#X obj 1968 1536 bng 19 250 50 0 empty empty empty 0 -10 0 12 #fcfcfc #000000 #000000;
#X obj 2174 1634 r~ gainOut;
#X obj 2236 1692 *~;
#N canvas 842 246 518 506 hann-window 0;
#N canvas 0 0 450 300 (subpatch) 0;
#X array \$0-hann 2048 float 0;
#X coords 0 1 2047 0 227 152 1;
#X restore 240 262 graph;
#X obj 112 366 osc~;
#X obj 112 391 *~ -0.5;
#X obj 112 415 +~ 0.5;
#X obj 95 458 tabwrite~ \$0-hann;
#X obj 64 236 swap;
#X obj 64 260 /;
#X msg 140 150 resize \$1;
#X obj 140 174 s \$0-hann;
#X msg 137 336 0;
#X obj 64 332 t f b;
#X obj 75 114 s window-size;
#X floatatom 64 294 8 0 0 0 - - - 0;
#X text 130 294 window hz;
#X text 246 123 Calculate Hann window table (variable window size) by getting the period of the window and Hz. Also get the analysis window size in seconds and msec., f 33;
#X obj 89 206 samplerate~;
#X obj 64 160 t f b f;
#X obj 64 60 inlet;
#X connect 1 0 2 0;
#X connect 2 0 3 0;
#X connect 3 0 4 0;
#X connect 5 0 6 0;
#X connect 5 1 6 1;
#X connect 6 0 12 0;
#X connect 7 0 8 0;
#X connect 9 0 1 1;
#X connect 10 0 1 0;
#X connect 10 1 4 0;
#X connect 10 1 9 0;
#X connect 12 0 10 0;
#X connect 15 0 5 1;
#X connect 16 0 5 0;
#X connect 16 1 15 0;
#X connect 16 2 7 0;
#X connect 17 0 11 0;
#X connect 17 0 16 0;
#X restore 2691 1636 pd hann-window;
#X floatatom 2703 1584 5 0 0 0 - - - 0;
#X msg 2685 1446 512;
#X msg 2713 1491 1024;
#X msg 2723 1517 2048;
#X msg 2734 1546 4096;
#X obj 2730 1363 r blockButton;
#X obj 2728 1403 sel 0 1 2 3;
#X obj 2796 1468 loadbang;
#X obj 2703 1607 s blocksize;
#X obj 2254 1634 c_xfade;
#X obj 2299 1608 unsig~;
#X obj 2108 1447 knob 49 0 1 0 0 empty empty #E3DFD9 #968E82 #5A5A5A 1 0 0 0 1 270 0 0 0;
#X obj 2108 1504 sig~;
#X obj 2126 1615 knob 49 0 1 0 0 empty empty #E3DFD9 #968E82 #5A5A5A 1 0 0 0 1 270 0 0 0;
#X obj 2126 1672 sig~;
#X obj 2481 1441 knob 49 0 1 0 0 empty empty #E3DFD9 #968E82 #5A5A5A 1 0 0 0 1 270 0 0 0;
#X obj 2481 1498 sig~;
#X obj 2395 1610 knob 49 0 1 0 0 empty empty #E3DFD9 #968E82 #5A5A5A 1 0 0 0 1 270 0 0 0;
#X obj 2395 1666 sig~;
#X obj 1988 1716 knob 49 0 1 0 0 empty empty #E3DFD9 #968E82 #5A5A5A 1 0 0 0 1 270 0 0 0;
#X obj 1988 1772 sig~;
#X obj 2071 1736 knob 49 0 1 0 0 empty empty #E3DFD9 #968E82 #5A5A5A 1 0 0 0 1 270 0 0 0;
#X obj 2071 1797 sig~;
#X connect 0 0 3 1;
#X connect 0 1 4 0;
#X connect 2 0 29 1;
#X connect 3 0 2 0;
#X connect 4 0 29 0;
#X connect 4 0 2 1;
#X connect 5 0 3 0;
#X connect 6 0 4 1;
#X connect 7 0 30 0;
#X connect 9 0 10 0;
#X connect 10 0 8 0;
#X connect 11 0 13 0;
#X connect 12 0 11 0;
#X connect 17 0 18 0;
#X connect 18 0 1 0;
#X connect 18 0 1 1;
#X connect 20 0 19 0;
#X connect 20 0 28 0;
#X connect 21 0 20 0;
#X connect 22 0 20 0;
#X connect 23 0 20 0;
#X connect 24 0 20 0;
#X connect 26 0 21 0;
#X connect 26 1 22 0;
#X connect 26 2 23 0;
#X connect 26 3 24 0;
#X connect 27 0 23 0;
#X connect 29 0 18 1;
#X connect 30 0 29 2;
#X connect 31 0 32 0;
#X connect 32 0 3 0;
#X connect 33 0 34 0;
#X connect 34 0 18 0;
#X connect 35 0 36 0;
#X connect 36 0 4 1;
#X connect 37 0 38 0;
#X connect 38 0 30 0;
#X connect 39 0 40 0;
#X connect 40 0 10 0;
#X connect 41 0 42 0;
#X connect 42 0 11 0;
