#N canvas 523 25 730 302 10;
#X obj 48 113 s bela_setDigital;
#X obj 48 66 loadbang;
#X msg 48 88 in 25 \, in 26;
#X obj 48 193 s bela_setDigital;
#X obj 48 146 loadbang;
#X msg 48 168 in 22 \, in 20 \, in 24 \, in 23;
#X text 177 87 Initialise the buttons;
#X text 247 167 Initialise the digital inputs;
#X connect 1 0 2 0;
#X connect 2 0 0 0;
#X connect 4 0 5 0;
#X connect 5 0 3 0;
